<?xml version="1.0" encoding="utf-8"?>
<!-- Generator: Adobe Illustrator 16.0.0, SVG Export Plug-In . SVG Version: 6.00 Build 0)  -->
<!DOCTYPE svg PUBLIC "-//W3C//DTD SVG 1.1//EN" "http://www.w3.org/Graphics/SVG/1.1/DTD/svg11.dtd">
<svg version="1.1" xmlns="http://www.w3.org/2000/svg" xmlns:xlink="http://www.w3.org/1999/xlink" x="0px" y="0px" width="1024px"
	 height="1024px" viewBox="0 0 1024 1024" enable-background="new 0 0 1024 1024" xml:space="preserve">
<g id="Grid" display="none">
</g>
<g id="Farmer" display="none">
</g>
<g id="Knight" display="none">
</g>
<g id="Knight_color">
</g>
<g id="Knight_Black">
</g>
<g id="Knight_Black_copy">
</g>
<g id="Knight_color_shaded">
</g>
<g id="Knight_color_shaded_copy">
</g>
<g id="Knight_color_shaded_copy_3">
</g>
<g id="Sudoku_Text">
</g>
<g id="Knight_color_shaded_copy_2">
	<circle fill="#1976D2" cx="512.388" cy="512.388" r="511.388"/>
	<path fill="#BDBDBD" d="M297.49,516.298l76.579,3.383l66.935,2.972c4.75,0.273,8.773-3.338,9.05-8.046l0.044-1.144
		c0.174-3.073,0.769-8.75-0.106-13.061c-0.666-3.286-1.38-4.786-7.456-5.364l-68.561-3.84l-35.931-2.012l-24.11-2.286
		c-36.373-5.715-28.882-14.447-16.765-48.004l33.695-96.847c3.201-8.275,12.345-22.05,20.8-22.05h21.628
		c12.206-12,25.512-21.335,39.682-28.24c23.909-28.938,54.679-46.397,88.236-46.397c75.847,0,137.339,89.019,137.339,198.879
		c0,15.36-1.188,30.312-3.519,44.668c1.37,12.07,2.053,23.179,2.053,35.523c0,35.25-18.742,97.336-49.053,147.626
		c0,0,0,1.144-0.045,1.144c-0.05,0.139-0.183,0.368-0.321,0.823c-0.411,1.097-1.055,3.2-1.555,6.356
		c-1.508,9.277-1.508,27.382,11.292,53.625c14.081,28.94,62.907,37.856,54.862,70.636c-5.898,24.003-103.645,88.374-172.221,92.946
		c-68.578,4.571-144.79-16.768-156.952-38.118C310.885,838.122,363.827,768,363.827,768h-41.514
		c-30.31,0-43.937-20.266-48.004-39.969l-25.145-176.593c-4.573-30.449,1.143-36.705,18.287-36.705"/>
	<path fill="#E53935" d="M731.86,542.814c-7.135,38.267,9.05,78.179,26.882,111.324c4.482,8.367,9.326,16.507,15.086,24.002
		c-11.336-8.045-33.101-18.015-44.803-25.648c-13.26-8.595-26.017-18.653-35.888-31.042c-19.567-24.55-27.937-55.457-27.937-86.544
		c0-100.582,35.344-126.733,52.578-155.444c27.43-45.718,26.242-57.742,20.572-88.007c-4.299-22.996-23.818-33.146-45.719-33.146
		c-26.016,0-47.593,27.476-59.252,46.176c-29.487-53.17-78.225-87.872-133.314-87.872c-1.465,0-2.879,0.046-4.343,0.046
		c5.304-6.399,11.245-13.67,13.625-16.506c6.947-8.181,13.988-16.32,21.306-24.183c11.885-12.756,24.502-25.191,39.41-34.472
		c27.382-17.008,64.549-27.112,96.508-29.672c76.123-6.081,135.281,26.563,171.217,93.905
		c25.693,48.188,34.017,99.163,14.902,150.688c-17.051,45.993-49.28,74.703-80.051,111.233
		C755.541,487.861,736.798,516.252,731.86,542.814z"/>
	<path fill="#C62828" d="M730.763,274.218c-8.596-10.927-22.767-15.909-38.13-15.909c-26.016,0-47.593,27.476-59.252,46.176
		c-9.281-16.825-20.526-31.775-33.283-44.348c11.43-11.931,39.044-36.116,75.758-36.116
		C724.498,224.021,727.377,268.915,730.763,274.218z"/>
	<path fill="#C62828" d="M852.691,356.42c-17.051,45.993-49.28,74.703-80.051,111.233c-17.1,20.208-35.843,48.599-40.78,75.161
		c-0.456,2.514-0.821,4.982-1.098,7.498c3.062-81.424,104.388-115.22,105.125-245.828c0.741-131.728-34.815-146.524-36.509-149.817
		c8.001,9.875,27.168,29.447,38.41,51.064C863.148,254.505,871.806,304.896,852.691,356.42z"/>
	<path fill="#C62828" d="M760.25,669.864c-10.791-5.987-23.313-12.207-31.225-17.372c-13.26-8.595-26.017-18.653-35.888-31.042
		c-19.567-24.55-27.937-55.457-27.937-86.544c0-14.54,0.734-27.523,2.06-39.136C671.238,594.064,733.274,650.022,760.25,669.864z"/>
	<path fill="#9E9E9E" d="M586.793,524.435c0,2.15-0.09,4.39-0.227,6.723l-145.063-8.505c4.522,0,8.273-3.521,8.55-8.046l0.044-1.144
		c0.184-3.062,0.777-8.732-0.094-13.074c-0.271-1.509-0.639-2.607-1.459-3.429"/>
	<path fill="#9E9E9E" d="M652.264,804.644c-5.898,24.003-103.645,88.374-172.221,92.946c-68.578,4.571-144.79-16.733-156.952-38.084
		c-12.206-21.351,40.736-91.437,40.736-91.437c188.587-28.803,221.872-90.066,223.743-93.861c-0.361,1.143-1.004,3.156-1.461,6.175
		c-1.508,9.277-1.508,27.382,11.292,53.625C611.482,762.948,660.309,771.864,652.264,804.644z"/>
	<linearGradient id="SVGID_1_" gradientUnits="userSpaceOnUse" x1="404.9072" y1="265.2686" x2="674.3392" y2="420.8252">
		<stop  offset="0" style="stop-color:#9E9E9E"/>
		<stop  offset="1" style="stop-color:#9E9E9E"/>
	</linearGradient>
	<path fill="url(#SVGID_1_)" d="M638.549,444.245c0,15.361-1.188,30.311-3.519,44.667
		c-64.832-115.072-93.267-123.165-120.882-136.423c-27.613-13.258-140.856-32.46-140.856-32.46
		c12.206-11.796,25.512-21.35,39.682-28.254c23.909-28.938,54.679-46.404,88.236-46.404
		C577.057,245.371,638.549,334.385,638.549,444.245z"/>
	<path fill="#BDBDBD" d="M638.549,444.245c0,15.361-1.188,30.311-3.519,44.667C599.504,231.838,416.726,290.54,413.018,291.729
		c23.915-28.893,54.635-46.358,88.192-46.358C577.057,245.371,638.549,334.385,638.549,444.245z"/>
</g>
<g id="Knight_color_shaded_no_bg">
</g>
</svg>
